<svg id="Layer_1" data-name="Layer 1" xmlns="http://www.w3.org/2000/svg" viewBox="0 0 1015 210"><defs><style>.cls-1{fill:#003da6;}.cls-2{fill:#fff;}</style></defs><g id="Layer_1-2" data-name="Layer 1"><rect class="cls-1" y="-0.2" width="1015" height="210"/><path class="cls-2" d="M924.79,103l-40.52,70.91H901.7l31.42-56.34,31.47,56.34H982L941.49,103l37.1-66.13H961.12l-28,51.6-27.94-51.6H887.69ZM803.55,48.69c31.43,0,56.14,25.62,56.14,56.71,0,30.88-25.06,56.69-56.14,56.69S747.4,136.27,747.4,105.4c0-31.08,24.74-56.71,56.15-56.71m0-14.17c-39.09,0-71.43,31.8-71.43,71.06,0,39.44,32.34,70.71,71.43,70.71S875,145,875,105.58c0-39.26-32.34-71.06-71.42-71.06M653.09,113.75h3.78l41.43,60.18h18.75l-43.62-61.46c21.09-1.81,34.32-16.71,34.32-37.8,0-30.89-24.17-37.78-50.18-37.78H637.81v137h15.27V113.75Zm0-62.69h4.49c18.4,0,34.9,2.18,34.9,24.71,0,21.27-17.42,24.55-34.68,24.55h-4.71Zm-97.78,0h5.63c17.81,0,35.81,1.65,35.81,24,0,19.62-14.35,24.71-31.27,24.71H555.31Zm0,62.88H566.4c11.46,0,23.25-1.46,32.49-9.07C607.48,97.77,612,86.5,612,75.41c0-12.19-5.31-24.17-15.47-31.27-10-6.9-22.17-7.25-34-7.25H540v137H555.3v-60Zm-74.72,6.92H434.25L457.7,66Zm6,14.18,16.18,38.89h16.91L458.06,30.33,394.81,173.94h16.73l16.53-38.89h58.52ZM319.77,113.75h3.79L365,173.93h18.72l-43.6-61.46c21.07-1.81,34.33-16.71,34.33-37.8,0-30.89-24.17-37.78-50.15-37.78H304.48v137h15.28V113.75Zm0-62.69h4.54c18.35,0,34.9,2.18,34.9,24.71,0,21.27-17.45,24.55-34.72,24.55h-4.72ZM188.53,36.89H173.26v85.78c0,15.63,1.46,28.17,13.46,39.61,9.27,9.11,22.53,14,35.42,14A50.43,50.43,0,0,0,259,160.66c10.9-11.27,12-23.1,12-38V36.89H255.76v81.59c0,10.73.56,22.71-6.72,31.44-6.35,7.65-17.09,12.17-26.9,12.17-10,0-21.63-4.71-27.61-13.09-6.36-8.71-6-20.33-6-30.52V36.89ZM147.82,48a66.11,66.11,0,0,0-40.9-13.46A71.66,71.66,0,0,0,35.5,105.93c0,38.91,32.71,70.34,71.42,70.34a70.39,70.39,0,0,0,40.9-13.45V143.91c-10.91,10.9-26,18.17-41.43,18.17-30.71,0-55.61-26.53-55.61-56.69S75.5,48.68,106,48.68a58.66,58.66,0,0,1,41.79,18.16Z"/></g></svg>